<svg width="100%" height="100%" viewBox="0 0 352 291" fill="none" xmlns="http://www.w3.org/2000/svg">
<path fill-rule="evenodd" clip-rule="evenodd" d="M40.0242 224.5H313.024L319.524 222.5L323.524 219.5L327.024 216L330.524 211.5L332.524 208.5L334.024 203.5V20.5L332.524 14.5L327.024 7.5L319.524 2.5L313.024 0.5H36.0242L29.0242 4.5L22.5242 11.5L19.5242 20.5V203.5L22.5242 211.5L26.0242 216L30.5242 220L34.0242 222.5L40.0242 224.5ZM314.524 198.5H39.5242V23L41.5242 19.5H312.024L314.524 23V198.5Z" fill="#CDEA02"/>
<path d="M39.5242 198.5H314.524V23L312.024 19.5H41.5242L39.5242 23V198.5Z" fill="white"/>
<path fill-rule="evenodd" clip-rule="evenodd" d="M40.0242 224.5H313.024L319.524 222.5L323.524 219.5L327.024 216L330.524 211.5L332.524 208.5L334.024 203.5V20.5L332.524 14.5L327.024 7.5L319.524 2.5L313.024 0.5H36.0242L29.0242 4.5L22.5242 11.5L19.5242 20.5V203.5L22.5242 211.5L26.0242 216L30.5242 220L34.0242 222.5L40.0242 224.5ZM314.524 198.5H39.5242V23L41.5242 19.5H312.024L314.524 23V198.5Z" stroke="#CDEA02"/>
<path d="M39.5242 198.5H314.524V23L312.024 19.5H41.5242L39.5242 23V198.5Z" stroke="#CDEA02"/>
<path d="M292.538 96.253C292.538 94.958 293.313 92.994 294.26 91.887C296.318 89.485 300.851 89.269 304.902 91.382C306.478 92.204 308.39 92.876 309.152 92.876C309.914 92.876 310.538 93.306 310.538 93.831C310.538 94.356 312.113 95.081 314.038 95.442C315.963 95.803 317.543 96.386 317.549 96.737C317.556 97.089 319.468 98.23 321.799 99.274C324.131 100.318 331.505 103.834 338.187 107.086C351.221 113.429 351.499 113.731 351.524 121.574C351.538 125.852 348.326 130.876 345.578 130.876C344.093 130.876 338.173 134.072 337.705 135.126C337.521 135.538 336.761 135.876 336.014 135.876C335.268 135.876 332.056 137.226 328.875 138.876C325.695 140.526 322.518 141.876 321.816 141.876C321.113 141.876 320.538 142.326 320.538 142.876C320.538 143.426 319.638 143.876 318.538 143.876C317.438 143.876 317.024 144.5 316.538 144.876C316.538 145.426 316.024 145.5 315.072 145.876C313.259 145.876 306.274 149.05 305.385 150.278C305.026 150.774 302.683 151.224 300.179 151.278C295.114 151.387 292.627 149.315 292.57 144.94C292.532 142.035 296.148 137.876 298.712 137.876C299.716 137.876 300.538 137.446 300.538 136.921C300.538 136.396 302.113 135.671 304.038 135.31C305.963 134.949 307.538 134.363 307.538 134.009C307.538 133.654 309 132.77 310.788 132.043C314.496 130.535 326.174 125.183 328.774 123.8C329.729 123.292 331.192 122.876 332.024 122.876C332.857 122.876 333.538 122.049 333.538 121.038C333.538 119.704 332.031 118.689 328.038 117.331C325.013 116.303 322.538 115.105 322.538 114.669C322.538 114.233 321.899 113.876 321.119 113.876C320.339 113.876 318.426 113.22 316.869 112.419C315.312 111.618 312.576 110.383 310.788 109.675C309 108.967 307.538 108.068 307.538 107.677C307.538 107.286 305.963 106.671 304.038 106.31C302.113 105.949 300.538 105.253 300.538 104.765C300.538 104.276 299.671 103.876 298.611 103.876C296.159 103.876 292.538 99.33 292.538 96.253Z" fill="#EF5A28"/>
<path d="M47.0242 91.884C47.0242 91.375 47.8112 90.752 48.7742 90.5C55.8612 88.648 60.0242 90.983 60.0242 96.809C60.0242 100.064 59.5852 100.72 56.2742 102.404C54.2122 103.453 52.2992 104.592 52.0242 104.935C51.7492 105.279 50.0612 105.877 48.2742 106.265C46.4872 106.653 45.0242 107.384 45.0242 107.89C45.0242 108.397 44.1242 108.811 43.0242 108.811C41.9242 108.811 41.0242 109.261 41.0242 109.811C41.0242 110.361 40.3642 110.811 39.5582 110.811C37.9892 110.811 30.8562 113.897 30.0242 114.935C29.7492 115.279 28.0622 115.877 26.2742 116.265C24.4862 116.653 23.0242 117.332 23.0242 117.774C23.0242 118.216 22.1222 118.814 21.0202 119.102C17.7452 119.958 19.6672 122.289 25.3102 124.302C28.1782 125.326 32.4112 127.209 34.7162 128.487C37.0222 129.765 39.6102 130.811 40.4662 130.811C41.3232 130.811 42.0242 131.261 42.0242 131.811C42.0242 132.361 42.7052 132.811 43.5382 132.811C44.3702 132.811 45.8332 133.239 46.7882 133.763C47.7432 134.286 50.3092 135.508 52.4912 136.479C57.9102 138.891 60.0242 141.249 60.0242 144.882C60.0242 149.36 57.5532 151.333 52.2042 151.126C49.7432 151.03 47.4582 150.582 47.1272 150.13C46.7952 149.678 45.3992 148.789 44.0242 148.154C32.0912 142.647 27.1642 140.385 25.0242 139.428C23.6492 138.814 21.9292 137.749 21.2032 137.061C20.4762 136.374 18.8262 135.811 17.5362 135.811C16.2462 135.811 15.0412 135.473 14.8572 135.061C14.3962 134.024 8.4802 130.811 7.0302 130.811C5.5842 130.811 2.10324 126.787 2.05724 125.061C2.03924 124.374 1.57422 123.811 1.02422 123.811C-0.933779 123.811 0.0682192 118.57 2.73522 114.859C4.52822 112.365 7.06822 110.458 10.2352 109.229C12.8692 108.207 15.0242 107.02 15.0242 106.591C15.0242 106.162 15.6632 105.811 16.4432 105.811C18.1122 105.811 24.3742 102.648 24.8572 101.561C25.0412 101.149 25.8712 100.811 26.7032 100.811C28.4042 100.811 34.3452 97.715 34.8572 96.561C35.0412 96.149 36.1922 95.811 37.4162 95.811C38.6402 95.811 40.5152 95.15 41.5832 94.343C42.6502 93.535 44.3112 92.86 45.2742 92.843C46.2372 92.825 47.0242 92.394 47.0242 91.884Z" fill="#EF5A28"/>
<path d="M56.2742 53.1789C56.2742 49.6139 57.4902 47.5889 60.2922 46.4899C63.2772 45.3179 67.0212 45.7959 69.1212 47.6169C70.3052 48.6439 71.2742 49.7659 71.2742 50.1099C71.2742 51.5449 74.8072 58.7499 75.5102 58.7499C75.9302 58.7499 76.2742 59.2439 76.2742 59.8489C76.2742 61.1869 79.4092 68.0539 80.3372 68.7499C80.7042 69.0249 81.3302 70.3749 81.7282 71.7499C82.9692 76.0339 84.7292 79.7499 85.5182 79.7499C85.9342 79.7499 86.2742 80.4679 86.2742 81.3459C86.2742 82.8969 89.1442 88.7449 90.3982 89.7499C90.7422 90.0249 91.3402 91.7129 91.7282 93.4999C92.1162 95.2869 92.8472 96.7499 93.3532 96.7499C93.8602 96.7499 94.2742 97.4249 94.2742 98.2499C94.2742 99.0749 94.6743 99.7499 95.1633 99.7499C95.6513 99.7499 96.3472 101.325 96.7082 103.25C97.0692 105.175 97.7942 106.75 98.3192 106.75C98.8442 106.75 99.2742 107.65 99.2742 108.75C99.2742 109.85 99.6882 110.75 100.195 110.75C100.701 110.75 101.412 112.1 101.774 113.75C102.136 115.4 102.847 116.75 103.353 116.75C103.86 116.75 104.274 117.875 104.274 119.25C104.274 120.625 104.724 121.75 105.274 121.75C105.824 121.75 106.274 122.197 106.274 122.743C106.274 124.451 109.707 131.75 110.51 131.75C110.93 131.75 111.274 132.244 111.274 132.849C111.274 134.198 114.414 141.061 115.346 141.75C115.718 142.025 116.34 143.713 116.728 145.5C117.116 147.287 117.847 148.75 118.353 148.75C118.86 148.75 119.274 149.425 119.274 150.25C119.274 151.075 119.724 151.75 120.274 151.75C120.824 151.75 121.277 152.537 121.28 153.5C121.284 154.463 123.081 158.85 125.274 163.25C129.661 172.052 130.173 176.093 127.33 179.5C123.44 184.163 117.281 181.905 114.063 174.635C113.36 173.048 112.496 171.75 112.141 171.75C111.787 171.75 111.201 170.175 110.84 168.25C110.479 166.325 109.754 164.75 109.229 164.75C108.704 164.75 108.274 164.075 108.274 163.25C108.274 162.425 107.874 161.75 107.385 161.75C106.897 161.75 106.201 160.175 105.84 158.25C105.479 156.325 104.754 154.75 104.229 154.75C103.704 154.75 103.274 154.14 103.274 153.395C103.274 152.65 101.587 148.69 99.5242 144.595C97.4622 140.5 95.1282 135.485 94.3372 133.45C93.5472 131.415 92.5352 129.75 92.0872 129.75C91.6402 129.75 91.2742 129.303 91.2742 128.757C91.2742 127.049 87.8413 119.75 87.0383 119.75C86.6183 119.75 86.2742 119.303 86.2742 118.757C86.2742 117.049 82.8413 109.75 82.0383 109.75C81.6183 109.75 81.2742 108.807 81.2742 107.654C81.2742 105.712 78.5802 99.8949 77.1502 98.7499C76.8062 98.4749 76.2082 96.7869 75.8202 94.9999C75.4322 93.2129 74.7012 91.7499 74.1952 91.7499C73.6882 91.7499 73.2742 91.0749 73.2742 90.2499C73.2742 89.4249 72.8742 88.7499 72.3852 88.7499C71.8972 88.7499 71.2013 87.1749 70.8403 85.2499C70.4793 83.3249 69.7542 81.7499 69.2292 81.7499C68.7042 81.7499 68.2742 80.8499 68.2742 79.7499C68.2742 78.6499 67.8602 77.7499 67.3532 77.7499C66.8472 77.7499 66.1362 76.3999 65.7742 74.7499C65.4122 73.0999 64.7012 71.7499 64.1952 71.7499C63.6882 71.7499 63.2742 70.6249 63.2742 69.2499C63.2742 67.8749 62.9232 66.7499 62.4942 66.7499C62.0652 66.7499 60.8412 64.4999 59.7742 61.7499C58.7072 58.9999 57.4832 56.7499 57.0542 56.7499C56.6252 56.7499 56.2742 55.1429 56.2742 53.1789Z" fill="#07AFD7"/>
<path d="M283.126 50.99C283.861 49.328 285.128 47.303 285.941 46.49C288.754 43.677 295.479 44.968 297.154 48.644C298.525 51.653 298.624 56.012 297.321 56.012C296.796 56.012 296.071 57.587 295.71 59.512C295.349 61.437 294.653 63.012 294.165 63.012C293.676 63.012 293.276 63.687 293.276 64.512C293.276 65.337 292.846 66.012 292.321 66.012C291.796 66.012 291.071 67.587 290.71 69.512C290.349 71.437 289.763 73.012 289.409 73.012C288.736 73.012 286.926 76.898 285.798 80.762C285.437 81.999 284.722 83.012 284.209 83.012C283.696 83.012 283.276 83.885 283.276 84.953C283.276 86.021 282.861 87.151 282.353 87.464C281.845 87.778 281.134 89.38 280.773 91.023C280.412 92.667 279.809 94.012 279.432 94.012C278.688 94.012 275.276 101.405 275.276 103.019C275.276 103.565 274.91 104.012 274.463 104.012C274.015 104.012 273.003 105.687 272.213 107.734C271.422 109.78 269.538 113.857 268.026 116.793C266.514 119.729 265.276 123.005 265.276 124.072C265.276 125.139 264.826 126.012 264.276 126.012C263.726 126.012 263.276 126.687 263.276 127.512C263.276 128.337 262.862 129.012 262.355 129.012C261.849 129.012 261.118 130.475 260.73 132.262C260.342 134.049 259.744 135.737 259.4 136.012C258.146 137.017 255.276 142.865 255.276 144.416C255.276 145.294 254.932 146.012 254.512 146.012C253.709 146.012 250.276 153.311 250.276 155.019C250.276 155.565 249.915 156.012 249.474 156.012C249.032 156.012 247.862 158.262 246.873 161.012C245.884 163.762 244.759 166.012 244.373 166.012C243.987 166.012 242.825 168.365 241.791 171.24C238.407 180.652 232.763 183.59 227.731 178.557C225.933 176.76 225.276 175.019 225.276 172.057C225.276 169.832 225.62 168.012 226.04 168.012C226.843 168.012 230.276 160.713 230.276 159.005C230.276 158.459 230.726 158.012 231.276 158.012C231.826 158.012 232.276 157.112 232.276 156.012C232.276 154.912 232.69 154.012 233.197 154.012C233.703 154.012 234.414 152.662 234.776 151.012C235.138 149.362 235.849 148.012 236.355 148.012C236.862 148.012 237.279 147.45 237.282 146.762C237.286 146.075 239.083 141.912 241.276 137.512C243.469 133.112 245.266 128.725 245.27 127.762C245.273 126.799 245.726 126.012 246.276 126.012C246.826 126.012 247.276 125.337 247.276 124.512C247.276 123.687 247.69 123.012 248.197 123.012C248.703 123.012 249.434 121.549 249.822 119.762C250.21 117.975 250.832 116.287 251.204 116.012C252.136 115.323 255.276 108.46 255.276 107.111C255.276 106.506 255.627 106.012 256.056 106.012C256.485 106.012 257.709 103.762 258.776 101.012C259.843 98.262 261.067 96.012 261.496 96.012C261.925 96.012 262.276 94.887 262.276 93.512C262.276 92.137 262.69 91.012 263.197 91.012C263.703 91.012 264.414 89.662 264.776 88.012C265.138 86.362 265.849 85.012 266.355 85.012C266.862 85.012 267.276 84.112 267.276 83.012C267.276 81.912 267.69 81.012 268.197 81.012C268.703 81.012 269.414 79.662 269.776 78.012C270.138 76.362 270.849 75.012 271.355 75.012C271.862 75.012 272.276 74.112 272.276 73.012C272.276 71.912 272.69 71.012 273.197 71.012C273.703 71.012 274.434 69.549 274.822 67.762C275.21 65.975 275.808 64.287 276.152 64.012C277.406 63.007 280.276 57.159 280.276 55.608C280.276 54.73 280.616 54.012 281.032 54.012C281.448 54.012 282.39 52.652 283.126 50.99Z" fill="#03AFD7"/>
<path d="M129.488 131.039C125.026 124.998 124.092 118.513 127.33 116.055C128.293 115.324 130.732 114.712 132.75 114.695C136.018 114.666 136.95 115.301 141.25 120.477C145.915 126.093 152.559 131.663 154.593 131.663C155.136 131.663 155.58 132.052 155.58 132.527C155.58 133.002 157.717 134.236 160.33 135.268C164.046 136.736 167.7 137.144 177.12 137.144C188.75 137.144 189.391 137.031 195.945 133.804C200.83 131.399 204.88 128.253 210.405 122.57C216.999 115.787 218.556 114.675 221.463 114.669C225.368 114.662 228.58 117.664 228.58 121.32C228.58 123.869 226.221 128.711 223.066 132.633C219.435 137.148 210.092 146.635 209.263 146.649C208.814 146.657 206.972 147.788 205.169 149.163C203.366 150.538 201.011 151.663 199.936 151.663C198.86 151.663 197.552 152.065 197.03 152.556C195.578 153.921 182.264 156.663 177.09 156.663C171.661 156.663 157.491 153.906 156.13 152.585C155.608 152.078 154.573 151.663 153.832 151.663C149.626 151.663 136.523 140.562 129.488 131.039Z" fill="black"/>
<path d="M202.889 46.832C202.889 46.364 204.127 45.492 205.639 44.894C213.312 41.862 219.273 44.165 224.368 52.129C226.304 55.157 227.889 57.814 227.889 58.035C227.889 58.256 230.139 62.064 232.889 66.498C237.893 74.567 238.416 76.057 237.282 79.013C236.425 81.248 228.058 81.103 225.389 78.808C222.699 76.495 217.889 69.988 217.889 68.662C217.889 68.075 217.541 67.595 217.116 67.595C216.691 67.595 215.496 66.02 214.459 64.095C213.422 62.17 212.295 60.595 211.954 60.595C211.219 60.595 207.889 64.362 207.889 65.193C207.889 66.104 201.656 74.719 198.725 77.858C196.393 80.356 195.458 80.673 191.225 80.403C186.846 80.124 186.36 79.848 186.085 77.477C185.914 76 186.965 72.73 188.495 69.977C189.988 67.292 191.7 64.212 192.299 63.134C192.899 62.055 193.952 60.56 194.639 59.812C195.327 59.064 195.889 57.809 195.889 57.024C195.889 56.238 196.339 55.595 196.889 55.595C197.439 55.595 197.889 55.028 197.889 54.335C197.889 53.642 199.014 51.861 200.389 50.378C201.764 48.896 202.889 47.3 202.889 46.832Z" fill="black"/>
<path d="M125.873 55.7629C125.873 53.7749 131.445 46.9559 133.873 45.9739C137.458 44.5239 142.254 44.5469 145.109 46.0279C147.866 47.4589 150.873 50.2269 150.873 51.3339C150.873 51.7339 151.998 53.5359 153.373 55.3389C154.748 57.1419 155.873 59.2839 155.873 60.0999C155.873 60.9159 156.25 61.7329 156.711 61.9169C157.88 62.3819 165.873 75.8499 165.873 77.3549C165.873 80.8179 164.594 81.7499 159.843 81.7499C154.058 81.7499 151.696 79.7269 144.873 68.9249C140.601 62.1629 137.873 59.9509 137.873 63.2499C137.873 64.0749 137.525 64.7499 137.1 64.7499C136.675 64.7499 135.48 66.3249 134.443 68.2499C133.406 70.1749 132.179 71.7499 131.716 71.7499C131.252 71.7499 130.873 72.3309 130.873 73.0419C130.873 73.7519 129.277 76.0259 127.325 78.0949C124.071 81.5449 123.389 81.8309 119.075 81.5529C114.426 81.2529 114.37 81.2079 114.063 77.4999C113.883 75.3289 114.199 73.7499 114.813 73.7499C115.396 73.7499 115.873 72.8499 115.873 71.7499C115.873 70.6499 116.271 69.7499 116.756 69.7499C117.242 69.7499 117.912 68.9629 118.245 67.9999C118.577 67.0369 119.76 64.8999 120.873 63.2499C121.986 61.5999 123.169 59.4629 123.501 58.4999C123.834 57.5369 124.504 56.7499 124.99 56.7499C125.475 56.7499 125.873 56.3059 125.873 55.7629Z" fill="black"/>
<path d="M135.276 249V273L109.526 273.032C80.2082 273.068 80.3652 273.029 79.5242 280.495C79.0962 284.291 79.3722 285.441 81.0992 287.049C82.2502 288.122 83.6612 289 84.2342 289C84.8072 289 85.2762 289.45 85.2762 290C85.2762 290.66 117.609 291 180.276 291C242.943 291 275.276 290.66 275.276 290C275.276 289.45 275.951 289 276.776 289C277.601 289 278.276 288.325 278.276 287.5C278.276 286.675 278.726 286 279.276 286C279.826 286 280.276 283.935 280.276 281.41C280.276 277.873 279.76 276.39 278.026 274.944C275.962 273.221 273.744 273.064 251.133 273.033C229.604 273.004 226.413 272.8 225.883 271.418C225.549 270.548 225.276 259.748 225.276 247.418V225H216.276H207.276V249V273H181.276H155.276V249V225H145.276H135.276V249Z" fill="black"/>
<path d="M135.276 249V273L109.526 273.032C80.2082 273.068 80.3652 273.029 79.5242 280.495C79.0962 284.291 79.3722 285.441 81.0992 287.049C82.2502 288.122 83.6612 289 84.2342 289C84.8072 289 85.2762 289.45 85.2762 290C85.2762 290.66 117.609 291 180.276 291C242.943 291 275.276 290.66 275.276 290C275.276 289.45 275.951 289 276.776 289C277.601 289 278.276 288.325 278.276 287.5C278.276 286.675 278.726 286 279.276 286C279.826 286 280.276 283.935 280.276 281.41C280.276 277.873 279.76 276.39 278.026 274.944C275.962 273.221 273.744 273.064 251.133 273.033C229.604 273.004 226.413 272.8 225.883 271.418C225.549 270.548 225.276 259.748 225.276 247.418V225H216.276H207.276V249V273H181.276H155.276V249V225H145.276H135.276V249Z" fill="#07AFD7"/>
</svg>
