<svg width="100%" height="100%" viewBox="0 0 353 403" fill="none" xmlns="http://www.w3.org/2000/svg">
<path d="M98 171L74.5 189V210.5L134 253V195L98 171Z" fill="white"/>
<path d="M255.5 171L279 189V210.5L219.5 253V195L255.5 171Z" fill="#D9D9D9"/>
<path d="M169.5 347.5L143.5 325H209.5L183 347.5V364.5H169.5V347.5Z" fill="white"/>
<path fill-rule="evenodd" clip-rule="evenodd" d="M127 61.5V65.5H120.5L53 0.5H15.5L0.5 21.5V82L25.5 134V177L36.5 198V248L87 321.5V346.5L132 382L145.5 402H207L221 382L265.5 346.5V321.5L316 248V198L327 177V134L352 82V21.5L336.5 0.5H300L231.5 65.5H226V61.5H127ZM98 171L74.5 189V210.5L134 253V195L98 171ZM255.5 171L279 189V210.5L219.5 253V195L255.5 171ZM169.5 347.5L143.5 325H209.5L183 347.5V364.5H169.5V347.5Z" fill="#C80F2E"/>
<path d="M98 171L74.5 189V210.5L134 253V195L98 171Z" stroke="#C80F2E"/>
<path d="M255.5 171L279 189V210.5L219.5 253V195L255.5 171Z" stroke="#C80F2E"/>
<path d="M169.5 347.5L143.5 325H209.5L183 347.5V364.5H169.5V347.5Z" stroke="#C80F2E"/>
<path fill-rule="evenodd" clip-rule="evenodd" d="M74.5 189L98 171L134 195V253L74.5 210.5V189ZM279 189L255.5 171L219.5 195V253L279 210.5V189ZM143.5 325L169.5 347.5V364.5H183V347.5L209.5 325H143.5Z" stroke="#C80F2E"/>
<path fill-rule="evenodd" clip-rule="evenodd" d="M127 61.5V65.5H120.5L53 0.5H15.5L0.5 21.5V82L25.5 134V177L36.5 198V248L87 321.5V346.5L132 382L145.5 402H207L221 382L265.5 346.5V321.5L316 248V198L327 177V134L352 82V21.5L336.5 0.5H300L231.5 65.5H226V61.5H127ZM98 171L74.5 189V210.5L134 253V195L98 171ZM255.5 171L279 189V210.5L219.5 253V195L255.5 171ZM169.5 347.5L143.5 325H209.5L183 347.5V364.5H169.5V347.5Z" stroke="#C80F2E"/>
</svg>
